<?xml version="1.0" standalone="no"?>
<!DOCTYPE svg PUBLIC "-//W3C//DTD SVG 20010904//EN"
 "http://www.w3.org/TR/2001/REC-SVG-20010904/DTD/svg10.dtd">
<svg version="1.0" xmlns="http://www.w3.org/2000/svg"
 width="512.000000pt" height="512.000000pt" viewBox="0 0 512.000000 512.000000"
 preserveAspectRatio="xMidYMid meet">
<metadata>
Created by potrace 1.14, written by Peter Selinger 2001-2017
</metadata>
<g transform="translate(0.000000,512.000000) scale(0.100000,-0.100000)"
fill="#000000" stroke="none">
<path d="M1555 5023 c-38 -47 -76 -92 -83 -99 -10 -10 3 -25 65 -76 250 -202
573 -526 724 -724 l60 -79 -168 -3 -168 -3 -65 73 c-77 87 -243 253 -359 361
-176 163 -363 301 -460 338 -168 64 -335 34 -448 -79 -125 -127 -146 -324 -51
-492 25 -45 99 -151 118 -170 3 -3 39 -43 80 -90 41 -47 78 -88 83 -91 4 -3
56 -53 115 -110 59 -58 143 -136 187 -174 44 -37 81 -72 83 -76 2 -5 -22 -50
-53 -101 -120 -199 -235 -451 -301 -663 -15 -49 -29 -94 -30 -100 -1 -5 -7
-28 -13 -51 -13 -48 -31 -135 -38 -184 -2 -19 -8 -60 -13 -90 -9 -60 -6 -358
5 -430 20 -141 72 -324 130 -465 19 -45 82 -179 140 -300 119 -244 157 -334
190 -450 41 -142 55 -228 60 -348 1 -37 5 -70 8 -73 6 -6 81 -7 219 -5 l48 1
-5 83 c-9 144 -19 210 -51 343 -41 170 -96 306 -247 612 -136 275 -199 456
-226 647 -14 105 -7 376 13 470 10 44 19 91 22 105 11 59 79 264 122 365 96
231 273 532 381 648 l26 29 -26 21 c-46 38 -63 52 -90 69 -14 9 -32 23 -40 30
-8 7 -50 43 -94 78 -117 94 -432 412 -504 508 -95 126 -111 182 -71 248 44 71
131 68 248 -9 176 -115 493 -411 687 -642 53 -63 101 -113 106 -109 13 8 584
6 634 -2 189 -30 398 -184 529 -389 82 -127 152 -302 177 -436 l12 -67 -34
-31 c-75 -69 -164 -118 -248 -137 -14 -3 -150 -8 -301 -10 -288 -4 -334 -10
-425 -56 -67 -34 -157 -99 -203 -146 -46 -47 -102 -120 -102 -133 0 -8 213
-129 227 -129 4 0 22 19 38 41 36 48 105 101 172 131 45 20 65 22 308 23 274
2 344 10 438 45 l58 22 52 -22 c356 -154 608 -350 737 -574 35 -62 77 -177 86
-233 3 -21 7 -45 10 -53 10 -29 4 -217 -10 -295 -18 -106 -44 -169 -202 -489
-74 -148 -135 -274 -137 -279 -2 -7 -125 -10 -340 -10 l-336 1 -28 32 c-95
111 -198 279 -241 395 -95 253 -27 585 161 783 l31 32 -94 95 -94 95 -39 -38
c-44 -42 -131 -170 -172 -252 -28 -56 -77 -190 -70 -190 3 0 0 -12 -6 -26 -9
-24 -15 -55 -25 -124 -9 -65 -3 -234 11 -310 26 -134 102 -311 188 -438 16
-24 27 -46 24 -48 -3 -3 -56 -6 -118 -7 l-113 -2 -1 -125 c0 -69 1 -129 2
-135 3 -8 724 -11 1366 -5 l58 0 181 368 c158 323 221 459 234 512 37 154 44
210 45 347 0 112 -7 169 -32 267 -80 314 -299 580 -654 793 -55 33 -126 72
-159 87 l-58 28 28 31 c16 17 40 40 52 50 22 18 23 25 17 75 -8 67 -14 100
-21 132 -3 14 -7 32 -9 40 -38 187 -149 439 -258 585 -136 185 -317 330 -497
399 -38 15 -52 29 -89 88 -45 72 -176 250 -227 308 -98 113 -143 160 -274 290
-212 212 -470 440 -496 440 -5 0 -40 -39 -79 -87z"/>
<path d="M2385 3382 c-26 -5 -63 -40 -82 -76 -21 -40 -28 -169 -14 -237 19
-91 83 -138 167 -123 54 10 94 57 110 127 8 32 6 164 -1 190 -15 49 -38 87
-62 102 -25 17 -81 25 -118 17z"/>
<path d="M1555 1341 c-2 -2 32 -76 77 -165 114 -227 193 -430 213 -545 3 -19
7 -37 9 -40 9 -14 26 -154 31 -249 2 -35 5 -66 8 -68 3 -3 63 -6 133 -6 l129
-1 0 54 c0 50 -3 85 -21 229 -21 171 -110 438 -225 675 l-59 120 -146 0 c-80
0 -147 -2 -149 -4z"/>
<path d="M4525 1042 c-8 -19 -15 -36 -15 -38 0 -2 -79 -164 -176 -361 -96
-197 -176 -362 -177 -366 -2 -7 166 -12 271 -8 20 1 43 40 176 314 84 171 163
339 175 372 13 33 27 70 32 83 5 13 7 27 4 31 -2 4 -65 8 -140 8 l-136 0 -14
-35z"/>
</g>
</svg>
